<svg id="Capa_1" enable-background="new 0 0 512 512" height="512" viewBox="0 0 512 512" width="512" xmlns="http://www.w3.org/2000/svg"><g><g><g><g><path d="m187.656 125.189v-66.389c0-8.772 7.137-15.909 15.909-15.909h104.871c8.772 0 15.909 7.137 15.909 15.909v66.389h35.392v-66.389c0-28.287-23.013-51.3-51.301-51.3h-104.872c-28.287 0-51.301 23.013-51.301 51.3v66.389z" fill="#407093"/><g><g><path d="m361.358 504.5h-210.716c-22.726 0-41.92-16.87-44.837-39.408l-44.882-346.783h390.154l-44.882 346.783c-2.917 22.538-22.111 39.408-44.837 39.408z" fill="#c6e873"/><path d="m386.033 118.309-44.882 346.783c-2.917 22.538-22.111 39.408-44.837 39.408h65.044c22.726 0 41.92-16.87 44.837-39.408l44.882-346.783z" fill="#b5e245"/><path d="m467.443 154.908h-422.886c-13.13 0-23.774-10.644-23.774-23.774 0-13.13 10.644-23.774 23.774-23.774h422.886c13.13 0 23.774 10.644 23.774 23.774 0 13.13-10.644 23.774-23.774 23.774z" fill="#4a80aa"/><path d="m467.443 107.36h-65.377c13.13 0 23.774 10.644 23.774 23.774 0 13.13-10.644 23.774-23.774 23.774h65.377c13.13 0 23.774-10.644 23.774-23.774 0-13.13-10.644-23.774-23.774-23.774z" fill="#407093"/></g></g></g><g><circle cx="256" cy="311.404" fill="#f2f9ff" r="106.822"/><g><g><g><g><g><g><g><g><path d="m257.706 262.558c-.826-1.191-2.587-1.191-3.413 0-8.255 11.904-41.914 66.017 1.636 100.891h.141c43.551-34.875 9.892-88.987 1.636-100.891z" fill="#b5e245"/></g></g></g></g></g></g></g></g></g></g><g><g><g><g><path d="m192.302 301.636c-.225-1.244.861-2.33 2.105-2.105 11.852 2.145 61.589 13.707 61.593 56.67v6.562l-.458.095c-48.373 5.351-60.989-48.787-63.24-61.222z" fill="#c6e873"/></g></g></g><g><g><g><path d="m319.698 301.636c.225-1.244-.861-2.33-2.105-2.105-11.852 2.145-61.589 13.707-61.593 56.67v6.562l.458.095c48.373 5.351 60.989-48.787 63.24-61.222z" fill="#c6e873"/></g></g></g></g><path d="m349.748 362.645h-187.496c18.142 33.121 53.321 55.581 93.748 55.581s75.607-22.46 93.748-55.581z" fill="#c6865c"/></g><g><path d="m467.443 99.86h-100.207v-41.06c0-32.422-26.378-58.8-58.8-58.8h-104.872c-32.423 0-58.801 26.378-58.801 58.801v41.06h-100.206c-17.245 0-31.274 14.029-31.274 31.274 0 17.244 14.029 31.273 31.274 31.273h14.511l39.299 303.646c3.39 26.194 25.863 45.946 52.275 45.946h210.717c26.412 0 48.885-19.752 52.275-45.945l1.523-11.772c.532-4.108-2.368-7.869-6.476-8.4-4.113-.546-7.869 2.366-8.4 6.475l-1.523 11.772c-2.426 18.738-18.504 32.87-37.4 32.87h-210.716c-18.896 0-34.974-14.132-37.399-32.871l-39.05-301.721h24.911c4.142 0 7.5-3.357 7.5-7.5s-3.358-7.5-7.5-7.5h-54.547c-8.974 0-16.274-7.301-16.274-16.274s7.3-16.273 16.274-16.273h422.886c8.974 0 16.274 7.301 16.274 16.274s-7.301 16.273-16.274 16.273h-333.254c-4.142 0-7.5 3.357-7.5 7.5s3.358 7.5 7.5 7.5h303.617l-33.03 255.207c-.532 4.108 2.368 7.869 6.475 8.401 4.131.53 7.872-2.387 8.401-6.476l33.279-257.133h14.511c17.245 0 31.274-14.029 31.274-31.274.001-17.243-14.029-31.273-31.273-31.273zm-150.599 0h-121.688v-41.06c0-4.637 3.772-8.409 8.409-8.409h104.871c4.637 0 8.409 3.772 8.409 8.409v41.06zm35.392 0h-20.392v-41.06c0-12.908-10.501-23.409-23.409-23.409h-104.871c-12.908 0-23.409 10.501-23.409 23.409v41.06h-20.392v-41.06c0-24.151 19.649-43.801 43.801-43.801h104.871c24.152 0 43.801 19.649 43.801 43.801z"/><path d="m141.678 311.404c0 63.425 51.693 114.322 114.322 114.322 62.729 0 114.322-51.009 114.322-114.322 0-63.037-51.285-114.322-114.322-114.322s-114.322 51.285-114.322 114.322zm114.322 99.323c-32.804 0-61.94-15.99-80.037-40.581h160.073c-18.096 24.591-47.232 40.581-80.036 40.581zm0-82.539c-3.633-6.12-8.418-11.438-13.974-16 1.773-15.326 8.829-29.656 13.974-38.368 5.145 8.712 12.2 23.042 13.974 38.367-5.556 4.563-10.341 9.88-13.974 16.001zm30.272-9.234c8.336-5.108 17.297-8.242 24.069-10.084-4.133 15.031-14.999 42.115-40.173 46.275h-6.636c.348-14.967 7.98-27.144 22.74-36.191zm-37.805 36.192h-6.636c-25.174-4.16-36.04-31.244-40.173-46.275 6.773 1.843 15.734 4.976 24.069 10.084 14.761 9.046 22.393 21.224 22.74 36.191zm106.855-43.742c0 15.688-3.662 30.536-10.167 43.741h-43.521c13.825-13.276 22.112-33.757 25.443-52.174 1.156-6.387-4.427-11.973-10.821-10.82-11.071 2.004-22.395 5.616-32.541 10.985-4.139-20.411-14.833-37.624-19.848-44.855-3.806-5.482-11.929-5.485-15.738.003-5.013 7.229-15.707 24.442-19.846 44.853-10.147-5.37-21.471-8.982-32.544-10.986-6.387-1.155-11.973 4.435-10.817 10.821 3.309 18.294 11.559 38.841 25.443 52.174h-43.52c-6.505-13.205-10.167-28.053-10.167-43.741 0-54.767 44.556-99.322 99.322-99.322s99.322 44.555 99.322 99.321z"/></g></g></svg>