<svg id="Capa_1" enable-background="new 0 0 512 512" height="512" viewBox="0 0 512 512" width="512" xmlns="http://www.w3.org/2000/svg"><g><g><path d="m338.389 118.715h81.581v33.231h-81.581z" fill="#f2f9ff"/><g><g><g><g><g><path d="m306.585 164.152h-56.245v-78.521c0-4.526 3.669-8.194 8.194-8.194h39.856c4.526 0 8.194 3.669 8.194 8.194v78.521z" fill="#d1ecf9"/></g><path d="m330.495 146.776h-104.065c0 26.472-8.809 52.192-25.038 73.106l-23.342 30.079c-16.23 20.914-25.038 46.633-25.038 73.106v137.51c0 24.258 19.665 43.924 43.924 43.924h163.056c24.258 0 43.924-19.665 43.924-43.924v-137.51c0-26.472-8.809-52.192-25.038-73.106l-23.342-30.079c-16.232-20.914-25.041-46.634-25.041-73.106z" fill="#f2f9ff"/><path d="m378.876 249.961-23.342-30.079c-16.23-20.914-25.038-46.633-25.038-73.106h-64.004c0 26.472 8.809 52.192 25.038 73.106l23.342 30.079c16.23 20.914 25.039 46.633 25.039 73.106v137.51c0 24.258-19.665 43.923-43.924 43.923h64.004c24.258 0 43.924-19.665 43.924-43.923v-137.51c-.001-26.473-8.809-52.193-25.039-73.106z" fill="#e2f4ff"/></g><path d="m323.264 40.309h-89.602c-9.06 0-16.404-7.344-16.404-16.404 0-9.06 7.344-16.404 16.404-16.404h89.602c9.06 0 16.404 7.344 16.404 16.404 0 9.059-7.344 16.404-16.404 16.404z" fill="#e4936b"/><path d="m323.264 7.5h-48.946v16.404c0 9.06-7.344 16.404-16.404 16.404h65.35c9.06 0 16.404-7.344 16.404-16.404s-7.344-16.404-16.404-16.404z" fill="#dd6938"/></g><path d="m339.919 193.256h-122.913c-4.484 0-8.119-3.635-8.119-8.119v-37.914c0-4.484 3.635-8.119 8.119-8.119h122.913c4.484 0 8.119 3.635 8.119 8.119v37.914c0 4.484-3.635 8.119-8.119 8.119z" fill="#d1ecf9"/><path d="m339.919 139.104h-65.952c4.484 0 8.119 3.635 8.119 8.119v37.914c0 4.484-3.635 8.119-8.119 8.119h65.952c4.484 0 8.119-3.635 8.119-8.119v-37.914c0-4.484-3.635-8.119-8.119-8.119z" fill="#afe2f7"/></g><path d="m258.637 452.02h145.278v-128.954c0-4.727-.293-9.428-.847-14.083h-144.431c-11.187 0-20.255 9.068-20.255 20.255v102.528c0 11.186 9.068 20.254 20.255 20.254z" fill="#c6e873"/><path d="m403.914 452.02v-128.954c0-4.727-.293-9.428-.847-14.083h-64.004c.554 4.656.847 9.357.847 14.083v128.954z" fill="#b5e245"/><g><g><path d="m439.695 149.394-31.251 10.63c-3.085 1.049-6.287-1.244-6.287-4.502v-40.383c0-3.258 3.202-5.552 6.287-4.502l31.251 10.63c1.928.656 3.224 2.466 3.224 4.502v19.123c0 2.036-1.296 3.847-3.224 4.502z" fill="#d1ecf9"/></g><g><path d="m365.117 112.441h-215.655c-11.056 0-21.027 6.647-25.279 16.852l-54.748 131.385c-1.323 3.174 1.328 6.576 4.729 6.069 18.937-2.821 35.338-14.631 44.018-31.697l34.038-66.924c3.148-6.189 9.503-10.087 16.447-10.087h196.45c4.124 0 7.468-3.344 7.468-7.468v-30.664c0-4.123-3.343-7.466-7.468-7.466z" fill="#e4936b"/></g><g><path d="m365.117 112.441h-65.35c4.124 0 7.468 3.343 7.468 7.468v30.664c0 4.125-3.343 7.468-7.468 7.468h65.35c4.124 0 7.468-3.344 7.468-7.468v-30.664c0-4.125-3.343-7.468-7.468-7.468z" fill="#dd6938"/></g></g></g></g><path d="m442.111 114.167-31.252-10.631c-6.329-2.156-13.322 1.156-15.536 7.679h-18.044c-2.718-3.791-7.15-6.274-12.16-6.274h-51.032v-19.309c0-8.654-7.041-15.694-15.694-15.694h-12.428v-22.129h37.301c13.181 0 23.904-10.724 23.904-23.904s-10.725-23.905-23.906-23.905h-89.603c-13.181 0-23.904 10.724-23.904 23.904s10.724 23.904 23.904 23.904h37.301v22.129h-12.428c-8.654 0-15.694 7.04-15.694 15.694v19.309h-39.974c-4.142 0-7.5 3.357-7.5 7.5s3.358 7.5 7.5 7.5c12.433-.002 143.115-.028 162.219-.031l.032 30.482c-.01.049-.018.1-.027.149h-196.423c-9.817 0-18.681 5.436-23.132 14.186l-34.038 66.924c-6.705 13.183-18.756 22.811-32.9 26.54l52.508-126.013c3.098-7.434 10.303-12.237 18.356-12.237h18.333c4.142 0 7.5-3.357 7.5-7.5s-3.358-7.5-7.5-7.5h-18.333c-14.128 0-26.768 8.427-32.202 21.468l-54.746 131.386c-3.56 8.541 3.59 17.737 12.757 16.372 21.296-3.173 39.837-16.524 49.598-35.715l34.038-66.924c1.878-3.692 5.619-5.986 9.762-5.986h32.721v19.596c0 4.783 2.166 9.065 5.563 11.933-7.768 15.44-14.946 21.952-34.826 48.293-17.162 22.115-26.613 49.711-26.613 77.704v137.51c0 28.355 23.069 51.424 51.424 51.424h163.056c28.355 0 51.423-23.068 51.423-51.424-.298-143.426.672-138.941-.873-152.113-.012-.179-.031-.355-.056-.53-2.756-22.671-11.63-44.459-25.684-62.57-20.231-26.806-27.12-32.977-34.826-48.294 3.397-2.867 5.563-7.15 5.563-11.933v-19.596h9.579c4.93 0 9.297-2.406 12.026-6.095h18.178c2.23 6.571 9.259 9.816 15.537 7.679l31.251-10.63c.001 0 .001-.001.002-.001 4.969-1.691 8.307-6.354 8.307-11.602v-19.122c-.001-5.25-3.341-9.914-8.309-11.603zm-208.449-81.358c-4.91 0-8.904-3.994-8.904-8.904s3.994-8.905 8.904-8.905h89.603c4.91 0 8.904 3.994 8.904 8.904s-3.995 8.904-8.904 8.904h-89.603zm146.423 93.406h14.572v18.231h-14.572zm-122.245-40.583c0-.383.312-.694.694-.694h39.856c.383 0 .694.312.694.694v19.309h-41.244zm115.111 168.927c10.677 13.759 17.95 29.927 21.318 46.924h-135.632c-15.304 0-27.755 12.451-27.755 27.755v102.528c0 15.304 12.451 27.755 27.755 27.755h18.724c4.142 0 7.5-3.357 7.5-7.5s-3.358-7.5-7.5-7.5h-18.724c-7.033 0-12.755-5.722-12.755-12.755v-102.529c0-7.033 5.722-12.755 12.755-12.755h137.557c.391 6.53.142 6.634.221 37.961h-101.519c-4.142 0-7.5 3.357-7.5 7.5s3.358 7.5 7.5 7.5h101.519v24.01h-101.519c-4.142 0-7.5 3.357-7.5 7.5s3.358 7.5 7.5 7.5h101.519v36.067h-83.983c-4.142 0-7.5 3.357-7.5 7.5s3.358 7.5 7.5 7.5h83.983v1.056c0 20.084-16.339 36.424-36.423 36.424h-163.057c-20.084 0-36.424-16.34-36.424-36.424v-137.51c0-24.681 8.333-49.01 23.464-68.508 19.533-26.145 28.651-34.224 37.859-53.803h113.257c9.217 19.599 18.386 27.738 37.86 53.804zm-32.413-69.422c0 .34-.274.614-.612.618-.015 0-.03.001-.044.001h-122.876c-.341 0-.619-.277-.619-.619v-19.596h124.15v19.596zm94.881-42.21-25.763 8.763v-32.718l25.763 8.764z"/></g></svg>